<?xml version="1.0" encoding="UTF-8"?>
<svg version="1.1" viewBox="0 0 2048 644" width="1280" height="1280" xmlns="http://www.w3.org/2000/svg">
<path transform="translate(1749)" d="m0 0h142l28 10 16 7 17 10 12 9 10 9 15 15 10 15 8 16 6 16 3 12 1 9v33l-2 15-6 18-9 17-10 14-9 10-8 8-11 9-15 10-10 5-15 4 14 8 16 13 10 11 10 15 9 17 9 23 8 26 18 65 11 33 10 23-2 1h-70l-7-14-10-28-12-45-10-37-9-27-12-25-7-11-8-10-7-6-13-8-10-4h-45l-15-2-15-4-1-3 8-12 7-9 13-10 13-6 17-4 25-3 19-7 14-8 10-8 8-7 9-11 6-9 7-15 3-13v-32l-3-12-6-14-10-14-8-9-13-10-16-9-15-6-21-5-7-1h-39l-39 5-5 1-1 16-1 435-1 1h-66l-1-492 4-3 31-6z" fill="#FDFDFD"/>
<path transform="translate(1363,6)" d="m0 0h65l4 9 51 141 18 50 13 36 22 61 17 47 13 36 21 58 17 47 5 13v2h-73l-4-9-9-24-21-61-19-54-17-50-14-40-22-63-20-58-13-38-4-16v-4h-2v10l-11 33-13 37-18 52-20 57-16 45-5 10-1 3h105l15 4 9 5 10 9 7 9 9 16 3 7-3 1-171 1-15 43-15 44-10 28-2 3h-68l-1-2 6-14 19-53 23-64 22-61 16-44 18-50 17-47 20-55 20-56 17-47 3-6z" fill="#FEFEFE"/>
<path transform="translate(277,137)" d="m0 0h11l10 3 10 6 9 8 6 10 4 9v14l-3 10-6 8-7 6-14 9-25 16-23 15-44 29-18 12-29 19-23 15-10 7h-2l5 5 17 10 13 9 16 10 27 18 44 29 30 20 20 13 12 8 12 9 6 8 3 10-2 13-3 10-8 11-10 8-13 5-5 1h-10l-9-4-15-10-20-13-23-15-14-9-16-10-15-10-25-16-43-29-20-13-11-7-9-6-11-7-8-5-8-6-11-11-4-6-3-12v-14l2-9 6-10 14-14 25-16 12-8 25-16 26-17 51-34 20-13 14-9 23-15 14-9 26-17z" fill="#34D29E"/>
<path transform="translate(688,138)" d="m0 0h12l11 4 70 46 20 13 16 10 29 19 33 22 11 7 18 12 17 11 19 13 10 9 8 9 4 10 1 5v11l-4 14-8 10-9 9-37 24-44 29-15 10-55 36-19 12-46 30-15 10-11 6-3 1h-10l-13-4-10-6-7-7-6-11-3-8v-14l4-10 6-8 6-5 12-8 46-30 41-27 18-12 20-13 19-12 18-12 12-7v-2l-14-10-17-11-42-28-42-27-16-10-24-16-17-11-11-7-12-11-6-10-1-3v-13l3-10 6-11 8-9 12-7z" fill="#34D29E"/>
<path transform="translate(568,31)" d="m0 0h15l10 3 9 6 8 9 3 7v13l-6 24-16 49-11 38-16 50-7 24-17 54-7 24-17 54-8 27-14 44-9 31-13 40-11 38-14 43-8 17-5 5-17 5h-10l-10-3-9-6-6-8-4-10v-17l14-43 8-26 6-21 16-50 8-28 14-43 8-28 16-51 8-27 12-38 11-37 14-45 12-40 11-35 6-21 8-16 5-6 9-5z" fill="#34D29E"/>
</svg>
